<svg xmlns="http://www.w3.org/2000/svg">
  <symbol id="whatsapp" viewBox="0 0 1 1">
    <path d="M0.083175 0.916585L0.139508 0.709585C0.102389 0.645954 0.0828874 0.573585 0.0830084 0.499919C0.0830084 0.269794 0.26955 0.083252 0.499675 0.083252C0.7298 0.083252 0.916342 0.269794 0.916342 0.499919C0.916342 0.730044 0.7298 0.916585 0.499675 0.916585C0.426041 0.916704 0.353702 0.897217 0.290092 0.860127L0.083175 0.916585ZM0.3493 0.304419C0.343919 0.304753 0.338661 0.30617 0.333842 0.308585C0.329322 0.311145 0.325196 0.314345 0.321592 0.318085C0.316592 0.322794 0.313758 0.326877 0.310717 0.330835C0.295317 0.350877 0.287034 0.375478 0.287175 0.400752C0.287258 0.421169 0.292592 0.441044 0.300925 0.459627C0.317967 0.49721 0.346008 0.537002 0.38305 0.573877C0.391967 0.582752 0.400675 0.591669 0.41005 0.59996C0.456025 0.640438 0.510811 0.669629 0.57005 0.68521L0.593758 0.688835C0.601467 0.689252 0.609175 0.688669 0.616925 0.688294C0.62906 0.687667 0.640909 0.684381 0.651633 0.678669C0.65709 0.675858 0.662415 0.672799 0.667592 0.669502C0.667592 0.669502 0.669383 0.668335 0.6728 0.665752C0.678425 0.661585 0.681883 0.658627 0.68655 0.653752C0.690008 0.650169 0.693008 0.64596 0.6953 0.641169C0.69855 0.634377 0.7018 0.621419 0.703133 0.610627C0.704133 0.602377 0.703842 0.597877 0.703717 0.595085C0.70355 0.590627 0.699842 0.586002 0.6958 0.584044L0.67155 0.573169C0.67155 0.573169 0.6353 0.557377 0.613175 0.547294C0.610842 0.546277 0.608342 0.545698 0.6058 0.545585C0.602949 0.545293 0.600069 0.545613 0.597352 0.546526C0.594636 0.547439 0.592146 0.548922 0.59005 0.550877V0.550794C0.589842 0.550794 0.58705 0.553169 0.556925 0.589669C0.555196 0.591992 0.552814 0.593748 0.550083 0.594713C0.547353 0.595677 0.544396 0.595807 0.541592 0.595085C0.538877 0.594359 0.536217 0.59344 0.533633 0.592335C0.528467 0.590169 0.526675 0.589335 0.523133 0.587794L0.522925 0.58771C0.499088 0.577303 0.477018 0.563246 0.457508 0.546044C0.452258 0.54146 0.447383 0.53646 0.442383 0.531627C0.425991 0.515929 0.411705 0.498169 0.399883 0.478794L0.397425 0.474835C0.395659 0.472176 0.394232 0.469306 0.393175 0.466294C0.391592 0.460169 0.395717 0.455252 0.395717 0.455252C0.395717 0.455252 0.405842 0.444169 0.41055 0.438169C0.41447 0.433182 0.418128 0.427994 0.421508 0.422627C0.426425 0.41471 0.427967 0.406585 0.425383 0.400294C0.413717 0.371794 0.401633 0.343419 0.389217 0.315252C0.386758 0.309669 0.379467 0.305669 0.372842 0.304877C0.370592 0.304627 0.368342 0.304377 0.366092 0.30421C0.360496 0.303932 0.354889 0.303988 0.3493 0.304377V0.304419Z" />
  </symbol>
  <symbol id="instagram" viewBox="0 0 1 1">
    <path d="M0.5 0C0.63585 0 0.6528 0.000499997 0.7061 0.003C0.75935 0.0055 0.7956 0.01385 0.8275 0.02625C0.8605 0.03895 0.8883 0.05615 0.9161 0.0839C0.941525 0.108895 0.961198 0.139129 0.97375 0.1725C0.9861 0.20435 0.9945 0.24065 0.997 0.2939C0.99935 0.3472 1 0.36415 1 0.5C1 0.63585 0.9995 0.6528 0.997 0.7061C0.9945 0.75935 0.9861 0.7956 0.97375 0.8275C0.961234 0.860889 0.941556 0.891131 0.9161 0.9161C0.891098 0.941516 0.860865 0.961188 0.8275 0.97375C0.79565 0.9861 0.75935 0.9945 0.7061 0.997C0.6528 0.99935 0.63585 1 0.5 1C0.36415 1 0.3472 0.9995 0.2939 0.997C0.24065 0.9945 0.2044 0.9861 0.1725 0.97375C0.139116 0.961224 0.108876 0.941547 0.0839 0.9161C0.0584703 0.891109 0.0387966 0.860873 0.02625 0.8275C0.01385 0.79565 0.0055 0.75935 0.003 0.7061C0.000649997 0.6528 0 0.63585 0 0.5C0 0.36415 0.000499997 0.3472 0.003 0.2939C0.0055 0.2406 0.01385 0.2044 0.02625 0.1725C0.0387618 0.139109 0.0584402 0.108866 0.0839 0.0839C0.108884 0.0584616 0.139121 0.0387865 0.1725 0.02625C0.2044 0.01385 0.2406 0.0055 0.2939 0.003C0.3472 0.000649997 0.36415 0 0.5 0ZM0.5 0.25C0.433696 0.25 0.370107 0.276339 0.323223 0.323223C0.276339 0.370107 0.25 0.433696 0.25 0.5C0.25 0.566304 0.276339 0.629893 0.323223 0.676777C0.370107 0.723661 0.433696 0.75 0.5 0.75C0.566304 0.75 0.629893 0.723661 0.676777 0.676777C0.723661 0.629893 0.75 0.566304 0.75 0.5C0.75 0.433696 0.723661 0.370107 0.676777 0.323223C0.629893 0.276339 0.566304 0.25 0.5 0.25V0.25ZM0.825 0.2375C0.825 0.220924 0.818415 0.205027 0.806694 0.193306C0.794973 0.181585 0.779076 0.175 0.7625 0.175C0.745924 0.175 0.730027 0.181585 0.718306 0.193306C0.706585 0.205027 0.7 0.220924 0.7 0.2375C0.7 0.254076 0.706585 0.269973 0.718306 0.281694C0.730027 0.293415 0.745924 0.3 0.7625 0.3C0.779076 0.3 0.794973 0.293415 0.806694 0.281694C0.818415 0.269973 0.825 0.254076 0.825 0.2375ZM0.5 0.35C0.539782 0.35 0.577936 0.365804 0.606066 0.393934C0.634197 0.422064 0.65 0.460218 0.65 0.5C0.65 0.539782 0.634197 0.577936 0.606066 0.606066C0.577936 0.634197 0.539782 0.65 0.5 0.65C0.460218 0.65 0.422064 0.634197 0.393934 0.606066C0.365804 0.577936 0.35 0.539782 0.35 0.5C0.35 0.460218 0.365804 0.422064 0.393934 0.393934C0.422064 0.365804 0.460218 0.35 0.5 0.35V0.35Z" />

  </symbol>
  <symbol id="arrow-down" viewBox="0 0 3 1">
    <path d="M1.19906 0.978779L2.2401 0.121873C2.27419 0.0937995 2.27392 0.0485153 2.23946 0.0206921C2.205 -0.00710452 2.14939 -0.00686196 2.11527 0.0212152L1.13619 0.827114L0.149751 0.0271695C0.115375 -0.000695429 0.0597948 -0.000596892 0.0255868 0.0274044C0.00843855 0.0414544 -8.34911e-05 0.0598212 6.16484e-07 0.0781578C8.4538e-05 0.0964526 0.00871697 0.114691 0.0258739 0.128612L1.07472 0.979154C1.09123 0.992579 1.11366 1.00007 1.13699 1C1.16031 0.999927 1.18264 0.992279 1.19906 0.978779Z" />
  </symbol>
  <symbol id="star" viewBox="0 0 354 354">
    <path d="M177.408 0L177.408 354M354 177.408L0 177.408M223.206 6.13662L131.584 348.074M347.864 223.205L5.92614 131.583M265.855 23.9174L88.8554 330.49M330.085 265.853L23.5118 88.8532M302.446 52.1305L52.1305 302.446M301.87 302.446L51.5537 52.1305M330.491 88.8532L23.9176 265.853M265.147 330.49L88.147 23.9174M348.075 131.583L6.13687 223.205M222.417 348.074L130.795 6.13668" />
</svg>

</symbol>

</svg>